<svg width="9" height="7" viewBox="0 0 9 7" fill="none" xmlns="http://www.w3.org/2000/svg">
<path d="M3.64739 3.19403C3.28737 3.49682 2.83265 3.67267 2.34 3.67267C1.84735 3.67267 1.39263 3.49689 1.03262 3.19403C0.407335 3.63357 0 4.36616 0 5.19644V5.84114C0 6.06578 0.180017 6.25139 0.397895 6.25139H3.70422V5.636C3.70422 4.97182 3.91264 4.3466 4.27267 3.84848C4.18742 3.72147 4.09265 3.60428 3.98844 3.49683C3.88423 3.37964 3.7705 3.28201 3.64739 3.19412V3.19403Z" fill="white"/>
<path d="M2.34004 3.04754C3.15478 3.04754 3.81792 2.36381 3.81792 1.52377C3.81792 0.683733 3.15478 0 2.34004 0C1.5253 0 0.86216 0.683733 0.86216 1.52377C0.852644 2.36381 1.5253 3.04754 2.34004 3.04754Z" fill="white"/>
<path d="M7.97688 3.63362C7.61687 3.93641 7.16215 4.11227 6.66004 4.11227C6.16739 4.11227 5.71267 3.93648 5.35265 3.63362C4.72737 4.06343 4.32004 4.80575 4.32004 5.63604V6.27091C4.32004 6.49556 4.50005 6.68116 4.72737 6.68116H8.60211C8.81999 6.68116 9.00001 6.49556 9.00001 6.27091V5.62622C9.00001 4.96204 8.73475 4.35638 8.3179 3.91684C8.21376 3.8192 8.10009 3.7215 7.97692 3.63361L7.97688 3.63362Z" fill="white"/>
<path d="M6.66004 3.48708C7.47478 3.48708 8.13792 2.80335 8.13792 1.96331C8.13792 1.12328 7.47478 0.439545 6.66004 0.439545C5.8453 0.439545 5.18216 1.12328 5.18216 1.96331C5.18216 2.80335 5.8453 3.48708 6.66004 3.48708Z" fill="white"/>
</svg>
