<svg xmlns="http://www.w3.org/2000/svg" width="32.44" height="28" viewBox="0 0 32.44 28">
  <defs>
    <style>
      .cls-1 {
        fill: #95e1d3;
        fill-rule: evenodd;
      }
    </style>
  </defs>
  <path id="COMPUTER_OK" data-name="COMPUTER / OK" class="cls-1" d="M1219.91,2333h-9.94v2.5l2.09,2v0.5h-13.6v-0.5l2.09-2V2333h-9.94a1.533,1.533,0,0,1-1.57-1.5v-20a1.533,1.533,0,0,1,1.57-1.5h29.3a1.54,1.54,0,0,1,1.57,1.5v20A1.54,1.54,0,0,1,1219.91,2333Zm-0.53-21h-28.25v17h28.25v-17Zm-17.26,7a1.608,1.608,0,0,1,1.11.44h0l0.98,0.94,3.08-2.94h0a1.59,1.59,0,0,1,1.11-.44,1.54,1.54,0,0,1,1.57,1.5,1.482,1.482,0,0,1-.46,1.06h0l-4.19,4h0a1.59,1.59,0,0,1-1.11.44,1.627,1.627,0,0,1-1.11-.44h0l-2.09-2h0a1.482,1.482,0,0,1-.46-1.06A1.533,1.533,0,0,1,1202.12,2319Z" transform="translate(-1189.03 -2310)"/>
</svg>
