<svg xmlns="http://www.w3.org/2000/svg" width="33.469" height="30.5" viewBox="0 0 33.469 30.5">
  <defs>
    <style>
      .cls-1 {
        fill: #95e1d3;
        fill-rule: evenodd;
      }
    </style>
  </defs>
  <path id="HOME" class="cls-1" d="M803.481,2495.5a1.534,1.534,0,0,1-1.569,1.5,1.6,1.6,0,0,1-1.067-.41l0,0.01-14.06-13.44h0l-0.04-.04h0l-14.069,13.45h0a1.631,1.631,0,0,1-1.1.43,1.535,1.535,0,0,1-1.57-1.5,1.449,1.449,0,0,1,.482-1.08l15.128-14.46a1.614,1.614,0,0,1,1.131-.46h0.1c0.024,0,.047.01,0.071,0.01h0a1.576,1.576,0,0,1,.977.47h0l6.176,5.9v-1.38a1.571,1.571,0,0,1,3.139,0v4.38l5.857,5.6h0A1.452,1.452,0,0,1,803.481,2495.5Zm-3.138,2.5v10.5a1.535,1.535,0,0,1-1.57,1.5h-3.139v-12h-6.277v12H774.708a1.535,1.535,0,0,1-1.569-1.5V2498l13.6-13Zm-16.218,0h-6.278v6h6.278v-6Z" transform="translate(-770 -2479.5)"/>
</svg>
