<svg xmlns="http://www.w3.org/2000/svg" width="33.47" height="32" viewBox="0 0 33.47 32">
  <defs>
    <style>
      .cls-1 {
        fill: #95e1d3;
        fill-rule: evenodd;
      }
    </style>
  </defs>
  <path id="IMAGE" class="cls-1" d="M1220.43,2511h-30.34a1.533,1.533,0,0,1-1.57-1.5v-29a1.533,1.533,0,0,1,1.57-1.5h30.34a1.533,1.533,0,0,1,1.57,1.5v29A1.533,1.533,0,0,1,1220.43,2511Zm-1.57-29h-27.2v26h27.2v-26Zm-23.54,1.5h5.75a1.5,1.5,0,1,1,0,3h-4.7v4.5h0a1.572,1.572,0,0,1-3.14,0h0v-5.5h0v-2h2.09Zm-2.09,15.5h0a1.572,1.572,0,0,1,3.14,0h0v4.5h4.7a1.5,1.5,0,1,1,0,3h-7.84v-2h0V2499Zm16.21-15.5h7.85v2h0v5.5h0a1.572,1.572,0,0,1-3.14,0h0v-4.5h-4.71A1.5,1.5,0,1,1,1209.44,2483.5Zm0,20h4.71V2499h0a1.572,1.572,0,0,1,3.14,0h0v5.5h0v2h-7.85A1.5,1.5,0,1,1,1209.44,2503.5Z" transform="translate(-1188.53 -2479)"/>
</svg>
