<svg xmlns="http://www.w3.org/2000/svg" width="33.5" height="32" viewBox="0 0 33.5 32">
  <defs>
    <style>
      .cls-1 {
        fill: #95e1d3;
        fill-rule: evenodd;
      }
    </style>
  </defs>
  <path id="LINE_GRAPH" data-name="LINE GRAPH" class="cls-1" d="M802.958,2341H772.616a1.535,1.535,0,0,1-1.57-1.5v-29a1.535,1.535,0,0,1,1.57-1.5h30.342a1.535,1.535,0,0,1,1.57,1.5v29A1.535,1.535,0,0,1,802.958,2341Zm-1.569-29h-27.2v26h27.2v-26ZM776.5,2325.24h0l4.186-2.5h0a1.657,1.657,0,0,1,1.7.03h0.006l6.938,4.42,7.992-5.4a1.618,1.618,0,0,1,.926-0.28,1.534,1.534,0,0,1,1.569,1.5,1.465,1.465,0,0,1-.65,1.21h0l-8.894,6h0a1.608,1.608,0,0,1-.919.29,1.63,1.63,0,0,1-.9-0.28l-6.964-4.43-3.281,1.96a1.654,1.654,0,0,1-.886.26,1.534,1.534,0,0,1-1.569-1.5A1.484,1.484,0,0,1,776.5,2325.24Z" transform="translate(-771.031 -2309)"/>
</svg>
